<svg width="353" height="236" viewBox="0 0 353 236" fill="none" xmlns="http://www.w3.org/2000/svg">
<g filter="url(#filter0_dd)">
<path fill-rule="evenodd" clip-rule="evenodd" d="M154.784 11.1503H83.0778V42.0634V100.087H154.784V84.703H140.745V65.5158C140.745 62.4295 140.499 60.5217 140.01 59.7803C139.532 59.0393 138.258 58.6746 136.187 58.6746V84.703H121.046V27.0324H131.741C138.87 27.0324 143.697 27.2993 146.221 27.8462C148.744 28.393 150.802 29.7906 152.395 32.0386C153.988 34.2745 154.784 37.8594 154.784 42.7682C154.784 47.2522 154.22 50.2657 153.093 51.8093C151.979 53.3523 149.761 54.276 146.453 54.5795C149.443 55.3209 151.464 56.3051 152.493 57.5443C153.522 58.7719 154.159 59.9142 154.404 60.9471C154.661 61.9801 154.784 64.8235 154.784 69.4775V42.7682V11.1503ZM83.0778 42.0634C83.0778 37.6527 83.6412 34.4205 84.7807 32.3788C85.9202 30.3375 87.7454 28.7457 90.2813 27.5913C92.8172 26.437 95.8675 25.8655 99.4569 25.8655C103.377 25.8655 106.71 26.4976 109.478 27.7493C112.235 29.013 114.06 30.5928 114.954 32.5126C115.848 34.4205 116.302 37.6648 116.302 42.246V44.5305H102.262V40.2653C102.262 38.2723 102.079 36.9965 101.723 36.4497C101.368 35.9029 100.78 35.6355 99.9471 35.6355C99.0403 35.6355 98.3544 36.0003 97.889 36.7412C97.4233 37.4701 97.1906 38.5763 97.1906 40.0708C97.1906 41.9907 97.4602 43.4369 97.9868 44.4087C98.5016 45.3688 99.9223 46.5473 102.262 47.9329C108.963 51.9061 113.19 55.175 114.93 57.7149C116.681 60.2543 117.551 64.3494 117.551 69.9876C117.551 74.0948 117.061 77.1204 116.094 79.0768C115.126 81.0213 113.263 82.6493 110.483 83.9617C107.714 85.2865 104.492 85.9426 100.804 85.9426C96.7617 85.9426 93.3195 85.1771 90.4529 83.6581C87.5983 82.1391 85.7361 80.207 84.8419 77.8618C83.9598 75.5045 83.5188 72.1629 83.5188 67.8491V64.07H97.5583V71.0813C97.5583 73.244 97.7541 74.6296 98.1461 75.2491C98.5381 75.8688 99.2365 76.1727 100.241 76.1727C101.245 76.1727 101.993 75.784 102.483 74.9939C102.973 74.2162 103.218 73.0498 103.218 71.5188C103.218 68.1285 102.753 65.9046 101.821 64.8717C100.853 63.8267 98.5016 62.0769 94.7528 59.6223C91.0041 57.1556 88.5294 55.3571 87.3044 54.2394C86.0916 53.1216 85.0746 51.578 84.2784 49.6095C83.4819 47.6409 83.0778 45.1256 83.0778 42.0634ZM136.187 49.7068V36.8751C137.915 36.8751 139.115 37.1545 139.764 37.7255C140.414 38.2968 140.745 39.4998 140.745 41.3344V44.506C140.745 47.0459 140.402 48.5524 139.728 49.0141C139.054 49.476 137.878 49.7068 136.187 49.7068Z" fill="#F7F2EC"/>
<path d="M36.295 169.928V182.207H37.4777C38.942 182.207 39.9557 182.144 40.5233 182.027C41.0914 181.902 41.5699 181.699 41.95 181.41C42.6587 180.887 43.1842 180.16 43.5364 179.231C43.8883 178.301 44.0666 177.153 44.0666 175.778C44.0666 173.919 43.6724 172.482 42.8793 171.459C42.0861 170.436 40.9646 169.928 39.5097 169.928H36.295V169.928ZM34.7463 167.772H39.4252C41.4668 167.772 43.0342 168.46 44.1227 169.842C45.2116 171.225 45.7559 173.201 45.7559 175.778C45.7559 177.746 45.451 179.379 44.8407 180.676C44.2354 181.972 43.3156 182.948 42.0908 183.605C42.4383 183.941 42.7526 184.331 43.0389 184.776C43.3202 185.214 43.5787 185.721 43.8038 186.284L49.0973 199.781H47.3516L44.287 191.915C43.6818 190.369 43.1609 189.103 42.7197 188.104C42.2832 187.104 41.9361 186.393 41.678 185.963C41.3401 185.401 40.8894 185.003 40.3312 184.761C39.7724 184.526 38.9559 184.409 37.8717 184.409H36.295V199.781H34.7463V167.772V167.772ZM59.0294 199.781V167.772H69.4524V169.835H60.5782V182.535H69.1661V184.597H60.5782V197.625H69.673V199.781H59.0294V199.781ZM97.424 197.406C96.279 198.375 95.148 199.109 94.0266 199.601C92.9095 200.093 91.802 200.343 90.6992 200.343C89.5918 200.343 88.5405 200.101 87.5454 199.625C86.5507 199.14 85.6215 198.43 84.7578 197.484C83.3501 195.954 82.252 193.985 81.4728 191.556C80.6939 189.134 80.3045 186.495 80.3045 183.636C80.3045 181.488 80.5625 179.403 81.074 177.379C81.5901 175.356 82.3175 173.591 83.2609 172.084C84.251 170.483 85.3775 169.272 86.6352 168.444C87.8976 167.624 89.2539 167.21 90.6992 167.21C91.7551 167.21 92.8393 167.46 93.9607 167.96C95.0778 168.452 96.2321 169.21 97.424 170.217V172.88C96.1337 171.733 94.9321 170.881 93.82 170.334C92.7126 169.78 91.6517 169.506 90.643 169.506C89.7464 169.506 88.8877 169.709 88.0713 170.116C87.2545 170.514 86.4849 171.108 85.7622 171.889C84.5703 173.232 83.6458 174.935 82.9839 177.005C82.3221 179.067 81.9939 181.324 81.9939 183.761C81.9939 185.643 82.2051 187.463 82.6321 189.221C83.0591 190.986 83.6644 192.54 84.4436 193.884C85.2225 195.227 86.147 196.25 87.2122 196.969C88.2824 197.687 89.4228 198.047 90.643 198.047C91.6424 198.047 92.6936 197.773 93.801 197.219C94.9042 196.672 96.1148 195.821 97.424 194.672V197.406V197.406ZM109.632 183.761C109.632 185.643 109.843 187.463 110.27 189.221C110.698 190.986 111.298 192.54 112.077 193.884C112.856 195.196 113.771 196.219 114.813 196.946C115.86 197.68 116.935 198.047 118.047 198.047C119.192 198.047 120.271 197.695 121.289 196.984C122.308 196.274 123.213 195.242 124.011 193.884C124.809 192.54 125.415 190.994 125.837 189.26C126.259 187.518 126.47 185.69 126.47 183.761C126.47 181.84 126.264 180.027 125.846 178.317C125.429 176.606 124.818 175.075 124.011 173.716C123.213 172.373 122.298 171.334 121.266 170.608C120.238 169.873 119.163 169.506 118.047 169.506C116.935 169.506 115.869 169.866 114.841 170.592C113.814 171.318 112.894 172.357 112.077 173.716C111.289 175.029 110.688 176.551 110.266 178.286C109.843 180.012 109.632 181.84 109.632 183.761V183.761ZM107.943 183.636C107.943 181.488 108.201 179.41 108.712 177.403C109.229 175.396 109.956 173.623 110.899 172.084C111.871 170.514 112.969 169.319 114.194 168.491C115.419 167.671 116.704 167.257 118.051 167.257C119.417 167.257 120.712 167.671 121.937 168.491C123.162 169.319 124.251 170.514 125.203 172.084C126.175 173.669 126.912 175.45 127.409 177.426C127.911 179.403 128.16 181.511 128.16 183.753C128.16 185.433 128.014 187.057 127.728 188.627C127.437 190.197 127.01 191.665 126.442 193.024C125.485 195.352 124.279 197.157 122.815 198.43C121.355 199.703 119.764 200.343 118.051 200.343C116.695 200.343 115.395 199.921 114.152 199.085C112.908 198.242 111.824 197.055 110.899 195.516C109.937 193.915 109.205 192.095 108.698 190.072C108.196 188.041 107.943 185.901 107.943 183.636ZM141.569 169.928V182.207H142.752C144.216 182.207 145.23 182.144 145.797 182.027C146.365 181.902 146.844 181.699 147.224 181.41C147.933 180.887 148.458 180.16 148.81 179.231C149.162 178.301 149.341 177.153 149.341 175.778C149.341 173.919 148.946 172.482 148.153 171.459C147.36 170.436 146.239 169.928 144.784 169.928H141.569V169.928ZM140.02 167.772H144.699C146.741 167.772 148.308 168.46 149.397 169.842C150.486 171.225 151.03 173.201 151.03 175.778C151.03 177.746 150.725 179.379 150.115 180.676C149.51 181.972 148.59 182.948 147.365 183.605C147.712 183.941 148.027 184.331 148.313 184.776C148.594 185.214 148.853 185.721 149.078 186.284L154.371 199.781H152.626L149.561 191.915C148.956 190.369 148.435 189.103 147.994 188.104C147.557 187.104 147.21 186.393 146.952 185.963C146.614 185.401 146.164 185.003 145.605 184.761C145.046 184.526 144.23 184.409 143.146 184.409H141.569V199.781H140.02V167.772ZM170.587 170.069H165.937V197.531H170.587C171.85 197.531 172.939 197.36 173.854 197.008C174.764 196.657 175.553 196.102 176.209 195.36C177.284 194.165 178.124 192.548 178.734 190.502C179.345 188.463 179.649 186.229 179.649 183.8C179.649 181.371 179.345 179.137 178.734 177.083C178.124 175.029 177.284 173.412 176.209 172.217C175.553 171.475 174.764 170.928 173.854 170.584C172.939 170.241 171.85 170.069 170.587 170.069V170.069ZM170.972 167.772C172.436 167.772 173.685 168.007 174.717 168.467C175.749 168.936 176.679 169.67 177.505 170.678C178.711 172.17 179.654 174.068 180.33 176.364C181.001 178.66 181.339 181.129 181.339 183.761C181.339 186.385 181.001 188.845 180.33 191.142C179.654 193.439 178.711 195.337 177.505 196.828C176.679 197.852 175.74 198.601 174.699 199.07C173.652 199.547 172.408 199.781 170.972 199.781H164.303V167.772H170.972ZM202.464 172.326C201.666 171.428 200.91 170.764 200.188 170.334C199.47 169.905 198.756 169.694 198.052 169.694C196.888 169.694 195.936 170.264 195.19 171.397C194.448 172.537 194.077 173.967 194.077 175.685C194.077 177.091 194.317 178.231 194.791 179.121C195.27 180.004 196.293 181.004 197.869 182.113C197.963 182.175 198.099 182.269 198.282 182.394C200.066 183.597 201.253 184.761 201.849 185.87C202.262 186.62 202.576 187.471 202.792 188.431C203.008 189.4 203.116 190.416 203.116 191.501C203.116 194.056 202.581 196.149 201.516 197.789C200.45 199.429 199.085 200.249 197.428 200.249C196.593 200.249 195.767 200.015 194.946 199.539C194.124 199.062 193.298 198.352 192.463 197.398V194.29C193.374 195.462 194.232 196.336 195.039 196.906C195.851 197.476 196.64 197.765 197.4 197.765C198.653 197.765 199.648 197.195 200.385 196.047C201.117 194.907 201.483 193.353 201.483 191.384C201.483 189.932 201.234 188.744 200.732 187.823C200.234 186.901 199.099 185.823 197.32 184.589C195.481 183.324 194.223 182.043 193.543 180.754C192.867 179.465 192.529 177.817 192.529 175.817C192.529 173.334 193.045 171.303 194.073 169.717C195.105 168.14 196.452 167.35 198.109 167.35C198.86 167.35 199.592 167.522 200.31 167.866C201.023 168.21 201.741 168.741 202.464 169.468V172.326V172.326Z" fill="#F7F2EC"/>
<path d="M35.248 156.373V145.711C37.4014 147.961 39.2132 149.519 40.6904 150.421C42.1679 151.312 43.5965 151.757 44.99 151.757C46.3909 151.757 47.45 151.394 48.1746 150.679C48.8923 149.952 49.2548 148.886 49.2548 147.469C49.2548 146.321 49.0318 145.395 48.5789 144.704C48.1328 144.001 47.0875 143.169 45.4431 142.208C41.3735 139.806 38.5722 137.346 37.039 134.839C35.5128 132.332 34.7463 129.133 34.7463 125.244C34.7463 121.143 35.7429 117.815 37.7359 115.25C39.7288 112.684 42.321 111.407 45.5198 111.407C47.1362 111.407 48.7669 111.735 50.3975 112.403C52.0281 113.071 53.6449 114.043 55.2338 115.32V125.185C53.3174 123.556 51.5962 122.35 50.0702 121.576C48.5509 120.791 47.1642 120.405 45.9099 120.405C44.5512 120.405 43.5128 120.733 42.8021 121.4C42.0843 122.069 41.7288 123.017 41.7288 124.248C41.7288 125.255 42.0495 126.204 42.6904 127.083C43.3245 127.973 44.293 128.805 45.5823 129.614C45.8543 129.801 46.2724 130.059 46.8297 130.398C49.5544 132.097 51.5056 133.55 52.6902 134.757C53.9307 136.034 54.8644 137.686 55.4985 139.701C56.1329 141.716 56.4463 144.071 56.4463 146.766C56.4463 151.206 55.4497 154.686 53.457 157.228C51.4569 159.77 48.6905 161.036 45.1503 161.036C43.3805 161.036 41.6731 160.65 40.0145 159.876C38.3631 159.091 36.7743 157.931 35.248 156.373V156.373ZM60.6761 160.192V112.18H67.8258V131.441H80.5364V112.18H87.6862V160.192H80.5364V140.72H67.8258V160.192H60.6761ZM101.602 142.618H110.034L106.034 124.341L101.602 142.618ZM89.6444 160.192L102.097 112.18H110.341L121.463 160.192H113.888L111.846 150.843H99.5397L97.254 160.192H89.6444ZM134.187 131.863C135.511 131.863 136.494 131.394 137.142 130.469C137.79 129.543 138.11 128.137 138.11 126.239C138.11 124.435 137.776 123.053 137.1 122.103C136.424 121.155 135.456 120.686 134.187 120.686H130.752V131.863H134.187V131.863ZM123.602 160.192V112.18H134.145C138.02 112.18 140.884 113.316 142.738 115.577C144.584 117.839 145.511 121.353 145.511 126.11C145.511 128.758 145.1 131.031 144.285 132.917C143.469 134.804 142.222 136.397 140.535 137.698C141.246 138.131 141.88 138.857 142.445 139.877C143.009 140.896 143.497 142.185 143.922 143.743L148.48 160.192H140.417L136.779 146.356C136.194 144.153 135.525 142.642 134.779 141.822C134.027 140.99 132.968 140.58 131.588 140.58C131.484 140.58 131.337 140.591 131.163 140.615C130.982 140.638 130.849 140.65 130.752 140.65V160.192H123.602V160.192ZM150.73 160.192V112.18H169.838V121.037H157.88V130.809H169.295V139.736H157.88V151.194H170.173V160.192H150.73V160.192ZM181.887 121.881V150.491H187.211C189.636 150.491 191.608 149.156 193.141 146.485C194.667 143.825 195.433 140.38 195.433 136.163C195.433 131.956 194.667 128.524 193.141 125.865C191.608 123.205 189.636 121.881 187.211 121.881H181.887ZM174.737 160.192V112.18H185.454C188.521 112.18 190.897 112.566 192.583 113.352C194.27 114.125 195.824 115.402 197.238 117.194C199.064 119.502 200.444 122.267 201.385 125.478C202.325 128.688 202.792 132.261 202.792 136.163C202.792 140.451 202.221 144.329 201.078 147.82C199.935 151.312 198.277 154.217 196.116 156.549C194.89 157.861 193.538 158.786 192.054 159.349C190.57 159.911 188.367 160.192 185.454 160.192H174.737V160.192Z" fill="#F7F2EC"/>
<path fill-rule="evenodd" clip-rule="evenodd" d="M233.863 0H4V228L233.863 228V0V0ZM222.439 11.3311H15.4238V216.669H222.439V11.3311V11.3311Z" fill="#F7F2EC"/>
<g filter="url(#filter1_d)">
<path fill-rule="evenodd" clip-rule="evenodd" d="M233.718 156.086C289.206 153.048 289.338 74.1621 233.71 71.8974L233.721 0C297.768 0.411173 349.401 50.8586 348.998 114.658C348.597 178.039 297.479 227.351 233.71 228V217.806L233.716 206.932H233.71V160.386L233.718 156.086ZM233.725 100.578C252.228 102.668 252.341 125.289 233.724 127.402L233.725 100.578Z" fill="#F7F2EC"/>
<path d="M234.21 71.4192L234.221 0.504255C297.77 1.17386 348.898 51.3098 348.498 114.655C348.1 177.583 297.483 226.593 234.21 227.494V217.806L234.216 206.932L234.216 206.432H234.21V160.387V160.386L234.217 156.558C261.943 154.817 275.867 134.204 275.883 113.702C275.891 103.399 272.389 93.1089 265.355 85.2467C258.396 77.4677 248.004 72.093 234.21 71.4192ZM234.225 101.145C242.876 102.343 247.132 108.204 247.145 113.983C247.158 119.76 242.93 125.627 234.224 126.835L234.225 101.145Z" stroke="black"/>
</g>
</g>
<defs>
<filter id="filter0_dd" x="0" y="0" width="353" height="236" filterUnits="userSpaceOnUse" color-interpolation-filters="sRGB">
<feFlood flood-opacity="0" result="BackgroundImageFix"/>
<feColorMatrix in="SourceAlpha" type="matrix" values="0 0 0 0 0 0 0 0 0 0 0 0 0 0 0 0 0 0 127 0"/>
<feOffset dy="4"/>
<feGaussianBlur stdDeviation="2"/>
<feColorMatrix type="matrix" values="0 0 0 0 0 0 0 0 0 0 0 0 0 0 0 0 0 0 0.25 0"/>
<feBlend mode="normal" in2="BackgroundImageFix" result="effect1_dropShadow"/>
<feColorMatrix in="SourceAlpha" type="matrix" values="0 0 0 0 0 0 0 0 0 0 0 0 0 0 0 0 0 0 127 0"/>
<feOffset dy="4"/>
<feGaussianBlur stdDeviation="2"/>
<feColorMatrix type="matrix" values="0 0 0 0 0 0 0 0 0 0 0 0 0 0 0 0 0 0 0.25 0"/>
<feBlend mode="normal" in2="effect1_dropShadow" result="effect2_dropShadow"/>
<feBlend mode="normal" in="SourceGraphic" in2="effect2_dropShadow" result="shape"/>
</filter>
<filter id="filter1_d" x="229.71" y="0" width="123.29" height="236" filterUnits="userSpaceOnUse" color-interpolation-filters="sRGB">
<feFlood flood-opacity="0" result="BackgroundImageFix"/>
<feColorMatrix in="SourceAlpha" type="matrix" values="0 0 0 0 0 0 0 0 0 0 0 0 0 0 0 0 0 0 127 0"/>
<feOffset dy="4"/>
<feGaussianBlur stdDeviation="2"/>
<feColorMatrix type="matrix" values="0 0 0 0 0 0 0 0 0 0 0 0 0 0 0 0 0 0 0.25 0"/>
<feBlend mode="normal" in2="BackgroundImageFix" result="effect1_dropShadow"/>
<feBlend mode="normal" in="SourceGraphic" in2="effect1_dropShadow" result="shape"/>
</filter>
</defs>
</svg>
